<svg width="23" height="21" viewBox="0 0 23 21" fill="none" xmlns="http://www.w3.org/2000/svg">
<path d="M10.0781 14.6094L15.8854 8.80208L14.7656 7.68229L10.0781 12.3698L7.63021 9.92188L6.51042 11.0417L10.0781 14.6094ZM11.1719 20.4427C9.88715 20.4427 8.67622 20.1997 7.53906 19.7135C6.40191 19.2274 5.41233 18.5634 4.57031 17.7214C3.7283 16.8793 3.0599 15.8898 2.5651 14.7526C2.07031 13.6155 1.82292 12.3958 1.82292 11.0938C1.82292 9.80903 2.07031 8.59809 2.5651 7.46094C3.0599 6.32379 3.7283 5.32986 4.57031 4.47917C5.41233 3.62847 6.40191 2.96007 7.53906 2.47396C8.67622 1.98785 9.88715 1.74479 11.1719 1.74479C12.4566 1.74479 13.6675 1.98785 14.8047 2.47396C15.9418 2.96007 16.9358 3.62847 17.7865 4.47917C18.6372 5.32986 19.3056 6.32379 19.7917 7.46094C20.2778 8.59809 20.5208 9.80903 20.5208 11.0938C20.5208 12.3958 20.2778 13.6155 19.7917 14.7526C19.3056 15.8898 18.6372 16.8793 17.7865 17.7214C16.9358 18.5634 15.9418 19.2274 14.8047 19.7135C13.6675 20.1997 12.4566 20.4427 11.1719 20.4427ZM1.09375 5.20833L0 4.11458L4.27083 0L5.36458 1.09375L1.09375 5.20833ZM21.25 5.20833L16.9792 1.09375L18.0729 0L22.3438 4.11458L21.25 5.20833ZM11.1719 18.8802C13.342 18.8802 15.1823 18.125 16.6927 16.6146C18.2031 15.1042 18.9583 13.2639 18.9583 11.0938C18.9583 8.92361 18.2031 7.08333 16.6927 5.57292C15.1823 4.0625 13.342 3.30729 11.1719 3.30729C9.00174 3.30729 7.16146 4.0625 5.65104 5.57292C4.14063 7.08333 3.38542 8.92361 3.38542 11.0938C3.38542 13.2639 4.14063 15.1042 5.65104 16.6146C7.16146 18.125 9.00174 18.8802 11.1719 18.8802Z" fill="white"/>
</svg>
