<svg width="15" height="14" viewBox="0 0 15 14" fill="none" xmlns="http://www.w3.org/2000/svg">
<path d="M6.97552 10.3975H8.02448V8.13248H10.2273V7.04459H8.02448V4.79745H6.97552V7.04459H4.77273V8.13248H6.97552V10.3975ZM7.5 14C6.63753 14 5.82459 13.8335 5.06119 13.5006C4.29779 13.1677 3.63345 12.7129 3.06818 12.1363C2.50291 11.5597 2.0542 10.882 1.72203 10.1032C1.38986 9.32442 1.22378 8.48917 1.22378 7.59745C1.22378 6.71762 1.38986 5.88832 1.72203 5.10955C2.0542 4.33079 2.50291 3.65011 3.06818 3.06752C3.63345 2.48493 4.29779 2.02718 5.06119 1.69427C5.82459 1.36136 6.63753 1.1949 7.5 1.1949C8.36247 1.1949 9.17541 1.36136 9.93881 1.69427C10.7022 2.02718 11.3695 2.48493 11.9406 3.06752C12.5117 3.65011 12.9604 4.33079 13.2867 5.10955C13.6131 5.88832 13.7762 6.71762 13.7762 7.59745C13.7762 8.48917 13.6131 9.32442 13.2867 10.1032C12.9604 10.882 12.5117 11.5597 11.9406 12.1363C11.3695 12.7129 10.7022 13.1677 9.93881 13.5006C9.17541 13.8335 8.36247 14 7.5 14ZM2.86713 0L3.6014 0.749045L0.734266 3.56688L0 2.81783L2.86713 0ZM12.1329 0L15 2.81783L14.2657 3.56688L11.3986 0.749045L12.1329 0ZM7.5 12.9299C8.95688 12.9299 10.1923 12.4127 11.2063 11.3783C12.2203 10.3439 12.7273 9.08365 12.7273 7.59745C12.7273 6.11125 12.2203 4.85096 11.2063 3.81656C10.1923 2.78217 8.95688 2.26497 7.5 2.26497C6.04312 2.26497 4.80769 2.78217 3.79371 3.81656C2.77972 4.85096 2.27273 6.11125 2.27273 7.59745C2.27273 9.08365 2.77972 10.3439 3.79371 11.3783C4.80769 12.4127 6.04312 12.9299 7.5 12.9299Z" fill="white"/>
</svg>
