<svg width="27" height="25" viewBox="0 0 27 25" fill="none" xmlns="http://www.w3.org/2000/svg">
<path d="M13.4062 24.5312C11.8646 24.5312 10.4115 24.2396 9.04688 23.6562C7.68229 23.0729 6.49479 22.276 5.48438 21.2656C4.47396 20.2552 3.67188 19.0677 3.07812 17.7031C2.48438 16.3385 2.1875 14.875 2.1875 13.3125C2.1875 11.7708 2.48438 10.3177 3.07812 8.95312C3.67188 7.58854 4.47396 6.39583 5.48438 5.375C6.49479 4.35417 7.68229 3.55208 9.04688 2.96875C10.4115 2.38542 11.8646 2.09375 13.4062 2.09375C14.9479 2.09375 16.401 2.38542 17.7656 2.96875C19.1302 3.55208 20.3229 4.35417 21.3438 5.375C22.3646 6.39583 23.1667 7.58854 23.75 8.95312C24.3333 10.3177 24.625 11.7708 24.625 13.3125C24.625 14.875 24.3333 16.3385 23.75 17.7031C23.1667 19.0677 22.3646 20.2552 21.3438 21.2656C20.3229 22.276 19.1302 23.0729 17.7656 23.6562C16.401 24.2396 14.9479 24.5312 13.4062 24.5312ZM17.1875 18.4062L18.5 17.0938L14.4375 13.0312V7.09375H12.5625V13.7813L17.1875 18.4062ZM5.125 0L6.4375 1.3125L1.3125 6.25L0 4.9375L5.125 0ZM21.6875 0L26.8125 4.9375L25.5 6.25L20.375 1.3125L21.6875 0ZM13.4062 22.6562C16.0104 22.6562 18.2188 21.75 20.0312 19.9375C21.8438 18.125 22.75 15.9167 22.75 13.3125C22.75 10.7083 21.8438 8.5 20.0312 6.6875C18.2188 4.875 16.0104 3.96875 13.4062 3.96875C10.8021 3.96875 8.59375 4.875 6.78125 6.6875C4.96875 8.5 4.0625 10.7083 4.0625 13.3125C4.0625 15.9167 4.96875 18.125 6.78125 19.9375C8.59375 21.75 10.8021 22.6562 13.4062 22.6562Z" fill="white"/>
</svg>
