<svg width="23" height="25" viewBox="0 0 23 25" fill="none" xmlns="http://www.w3.org/2000/svg">
<path d="M14.9062 20.625C14.0521 20.625 13.3333 20.3333 12.75 19.75C12.1667 19.1667 11.875 18.4479 11.875 17.5938C11.875 16.7396 12.1667 16.0208 12.75 15.4375C13.3333 14.8542 14.0521 14.5625 14.9062 14.5625C15.7604 14.5625 16.4792 14.8542 17.0625 15.4375C17.6458 16.0208 17.9375 16.7396 17.9375 17.5938C17.9375 18.4479 17.6458 19.1667 17.0625 19.75C16.4792 20.3333 15.7604 20.625 14.9062 20.625ZM1.875 25C1.375 25 0.9375 24.8125 0.5625 24.4375C0.1875 24.0625 0 23.625 0 23.125V3.75C0 3.25 0.1875 2.8125 0.5625 2.4375C0.9375 2.0625 1.375 1.875 1.875 1.875H3.90625V0H5.9375V1.875H16.5625V0H18.5938V1.875H20.625C21.125 1.875 21.5625 2.0625 21.9375 2.4375C22.3125 2.8125 22.5 3.25 22.5 3.75V23.125C22.5 23.625 22.3125 24.0625 21.9375 24.4375C21.5625 24.8125 21.125 25 20.625 25H1.875ZM1.875 23.125H20.625V9.6875H1.875V23.125ZM1.875 7.8125H20.625V3.75H1.875V7.8125ZM1.875 7.8125V3.75V7.8125Z" fill="#D9D9D9"/>
</svg>
