<svg width="32" height="32" viewBox="0 0 32 32" fill="none" xmlns="http://www.w3.org/2000/svg">
<path d="M9.59063 22.5435C9.84814 22.5435 10.0684 22.4518 10.2513 22.2683C10.4342 22.0848 10.5256 21.8643 10.5256 21.6067C10.5256 21.3492 10.4339 21.129 10.2504 20.9461C10.0669 20.7632 9.84634 20.6718 9.58883 20.6718C9.33132 20.6718 9.11111 20.7635 8.9282 20.947C8.74529 21.1305 8.65383 21.351 8.65383 21.6085C8.65383 21.8661 8.74559 22.0863 8.9291 22.2692C9.11261 22.4521 9.33312 22.5435 9.59063 22.5435ZM9.59063 17.2692C9.84814 17.2692 10.0684 17.1774 10.2513 16.9939C10.4342 16.8104 10.5256 16.5899 10.5256 16.3324C10.5256 16.0749 10.4339 15.8547 10.2504 15.6718C10.0669 15.4889 9.84634 15.3974 9.58883 15.3974C9.33132 15.3974 9.11111 15.4892 8.9282 15.6727C8.74529 15.8562 8.65383 16.0767 8.65383 16.3342C8.65383 16.5917 8.74559 16.8119 8.9291 16.9948C9.11261 17.1777 9.33312 17.2692 9.59063 17.2692ZM9.59063 11.9948C9.84814 11.9948 10.0684 11.9031 10.2513 11.7196C10.4342 11.5361 10.5256 11.3156 10.5256 11.0581C10.5256 10.8005 10.4339 10.5803 10.2504 10.3974C10.0669 10.2145 9.84634 10.1231 9.58883 10.1231C9.33132 10.1231 9.11111 10.2148 8.9282 10.3983C8.74529 10.5818 8.65383 10.8023 8.65383 11.0599C8.65383 11.3174 8.74559 11.5376 8.9291 11.7205C9.11261 11.9034 9.33312 11.9948 9.59063 11.9948ZM13.9384 22.364H21.623V20.8513H13.9384V22.364ZM13.9384 17.0897H21.623V15.5769H13.9384V17.0897ZM13.9384 11.8153H21.623V10.3026H13.9384V11.8153ZM5.9231 27.6666C5.40023 27.6666 4.949 27.4768 4.5694 27.0972C4.1898 26.7176 4 26.2664 4 25.7435V6.9231C4 6.40023 4.1898 5.949 4.5694 5.5694C4.949 5.1898 5.40023 5 5.9231 5H24.7435C25.2664 5 25.7176 5.1898 26.0972 5.5694C26.4768 5.949 26.6666 6.40023 26.6666 6.9231V25.7435C26.6666 26.2664 26.4768 26.7176 26.0972 27.0972C25.7176 27.4768 25.2664 27.6666 24.7435 27.6666H5.9231ZM5.9231 26.1538H24.7435C24.8461 26.1538 24.9401 26.1111 25.0256 26.0256C25.1111 25.9401 25.1538 25.8461 25.1538 25.7435V6.9231C25.1538 6.82052 25.1111 6.72649 25.0256 6.641C24.9401 6.55553 24.8461 6.5128 24.7435 6.5128H5.9231C5.82052 6.5128 5.72649 6.55553 5.641 6.641C5.55553 6.72649 5.5128 6.82052 5.5128 6.9231V25.7435C5.5128 25.8461 5.55553 25.9401 5.641 26.0256C5.72649 26.1111 5.82052 26.1538 5.9231 26.1538Z" fill="#EEF0F2"/>
</svg>
