<svg width="27" height="27" viewBox="0 0 27 27" fill="none" xmlns="http://www.w3.org/2000/svg">
<path d="M14.0625 16.875C14.85 16.875 15.5156 16.6031 16.0594 16.0594C16.6031 15.5156 16.875 14.85 16.875 14.0625V7.875H20.25V5.625H15.75V11.8125C15.5063 11.625 15.2438 11.4844 14.9625 11.3906C14.6813 11.2969 14.3813 11.25 14.0625 11.25C13.275 11.25 12.6094 11.5219 12.0656 12.0656C11.5219 12.6094 11.25 13.275 11.25 14.0625C11.25 14.85 11.5219 15.5156 12.0656 16.0594C12.6094 16.6031 13.275 16.875 14.0625 16.875ZM9 20.25C8.38125 20.25 7.85138 20.0295 7.41038 19.5885C6.96938 19.1475 6.74925 18.618 6.75 18V4.5C6.75 3.88125 6.9705 3.35138 7.4115 2.91038C7.8525 2.46938 8.382 2.24925 9 2.25H22.5C23.1188 2.25 23.6486 2.4705 24.0896 2.9115C24.5306 3.3525 24.7508 3.882 24.75 4.5V18C24.75 18.6188 24.5295 19.1486 24.0885 19.5896C23.6475 20.0306 23.118 20.2508 22.5 20.25H9ZM4.5 24.75C3.88125 24.75 3.35138 24.5295 2.91038 24.0885C2.46938 23.6475 2.24925 23.118 2.25 22.5V6.75H4.5V22.5H20.25V24.75H4.5Z" fill="#EEF0F2"/>
</svg>
