<svg width="15" height="15" viewBox="0 0 15 15" fill="none" xmlns="http://www.w3.org/2000/svg">
<path d="M13.6139 14.0647L8.31736 9.13345C7.91458 9.45845 7.44468 9.71157 6.90764 9.89282C6.3706 10.0741 5.8 10.1647 5.19583 10.1647C3.74583 10.1647 2.51736 9.69595 1.51042 8.75845C0.503472 7.82095 0 6.6897 0 5.3647C0 4.0397 0.503472 2.90845 1.51042 1.97095C2.51736 1.03345 3.73912 0.564697 5.17569 0.564697C6.59884 0.564697 7.81053 1.03345 8.81076 1.97095C9.811 2.90845 10.3111 4.0397 10.3111 5.3647C10.3111 5.9022 10.2171 6.42095 10.0292 6.92095C9.8412 7.42095 9.55926 7.8897 9.18333 8.3272L14.5 13.2397L13.6139 14.0647ZM5.17569 9.0397C6.2632 9.0397 7.18958 8.68032 7.95486 7.96157C8.72014 7.24282 9.10278 6.3772 9.10278 5.3647C9.10278 4.3522 8.72014 3.48657 7.95486 2.76782C7.18958 2.04907 6.2632 1.6897 5.17569 1.6897C4.07477 1.6897 3.13831 2.04907 2.36632 2.76782C1.59433 3.48657 1.20833 4.3522 1.20833 5.3647C1.20833 6.3772 1.59433 7.24282 2.36632 7.96157C3.13831 8.68032 4.07477 9.0397 5.17569 9.0397Z" fill="#EEF0F2"/>
</svg>
